<svg xmlns="http://www.w3.org/2000/svg" viewBox="0 0 800 600" width="800" height="600">
<defs>
<linearGradient id="g5" x1="0" y1="0" x2="0" y2="1">
<stop offset="0" stop-color="#1d3a32"/>
<stop offset="1" stop-color="#112823"/>
</linearGradient>
</defs>
<rect width="800" height="600" fill="url(#g5)"/>
<circle cx="400" cy="312" r="216" fill="#FAF5F0" opacity="0.05"/><line x1="160" y1="516" x2="640" y2="516" stroke="#FAF5F0" stroke-opacity="0.18" stroke-width="2"/><path d="M240 516 Q 258 390 240 264" stroke="#FAF5F0" stroke-width="8" fill="none" opacity="0.3"/><g transform="translate(240 403) rotate(-35)"><path d="M0 0 C 21 -26, 64 -26, 86 0 C 64 26, 21 26, 0 0 Z" fill="#FAF5F0" opacity="0.24"/></g><ellipse cx="240" cy="183" rx="40" ry="86" fill="#FAF5F0" opacity="0.3" transform="rotate(0 240 264)"/><ellipse cx="240" cy="183" rx="40" ry="86" fill="#FAF5F0" opacity="0.3" transform="rotate(60 240 264)"/><ellipse cx="240" cy="183" rx="40" ry="86" fill="#FAF5F0" opacity="0.3" transform="rotate(120 240 264)"/><ellipse cx="240" cy="183" rx="40" ry="86" fill="#FAF5F0" opacity="0.3" transform="rotate(180 240 264)"/><ellipse cx="240" cy="183" rx="40" ry="86" fill="#FAF5F0" opacity="0.3" transform="rotate(240 240 264)"/><ellipse cx="240" cy="183" rx="40" ry="86" fill="#FAF5F0" opacity="0.3" transform="rotate(300 240 264)"/><circle cx="240" cy="264" r="33" fill="#EDBE77" opacity="0.50"/><path d="M416 516 Q 398 330 416 144" stroke="#FAF5F0" stroke-width="11" fill="none" opacity="0.42"/><g transform="translate(416 349) rotate(-145)"><path d="M0 0 C 32 -38, 95 -38, 126 0 C 95 38, 32 38, 0 0 Z" fill="#FAF5F0" opacity="0.336"/></g><ellipse cx="416" cy="25" rx="60" ry="126" fill="#FAF5F0" opacity="0.42" transform="rotate(0 416 144)"/><ellipse cx="416" cy="25" rx="60" ry="126" fill="#FAF5F0" opacity="0.42" transform="rotate(60 416 144)"/><ellipse cx="416" cy="25" rx="60" ry="126" fill="#FAF5F0" opacity="0.42" transform="rotate(120 416 144)"/><ellipse cx="416" cy="25" rx="60" ry="126" fill="#FAF5F0" opacity="0.42" transform="rotate(180 416 144)"/><ellipse cx="416" cy="25" rx="60" ry="126" fill="#FAF5F0" opacity="0.42" transform="rotate(240 416 144)"/><ellipse cx="416" cy="25" rx="60" ry="126" fill="#FAF5F0" opacity="0.42" transform="rotate(300 416 144)"/><circle cx="416" cy="144" r="48" fill="#EDBE77" opacity="0.62"/><path d="M576 516 Q 594 408 576 300" stroke="#FAF5F0" stroke-width="6" fill="none" opacity="0.24"/><g transform="translate(576 419) rotate(-35)"><path d="M0 0 C 18 -22, 55 -22, 73 0 C 55 22, 18 22, 0 0 Z" fill="#FAF5F0" opacity="0.192"/></g><ellipse cx="576" cy="231" rx="35" ry="73" fill="#FAF5F0" opacity="0.24" transform="rotate(0 576 300)"/><ellipse cx="576" cy="231" rx="35" ry="73" fill="#FAF5F0" opacity="0.24" transform="rotate(60 576 300)"/><ellipse cx="576" cy="231" rx="35" ry="73" fill="#FAF5F0" opacity="0.24" transform="rotate(120 576 300)"/><ellipse cx="576" cy="231" rx="35" ry="73" fill="#FAF5F0" opacity="0.24" transform="rotate(180 576 300)"/><ellipse cx="576" cy="231" rx="35" ry="73" fill="#FAF5F0" opacity="0.24" transform="rotate(240 576 300)"/><ellipse cx="576" cy="231" rx="35" ry="73" fill="#FAF5F0" opacity="0.24" transform="rotate(300 576 300)"/><circle cx="576" cy="300" r="28" fill="#EDBE77" opacity="0.44"/>
<rect x="336" y="574" width="128" height="2" fill="#EDBE77" opacity="0.55"/>
</svg>