<svg xmlns="http://www.w3.org/2000/svg" viewBox="0 0 1200 900" width="1200" height="900">
<defs>
<linearGradient id="g55" x1="0" y1="0" x2="0" y2="1">
<stop offset="0" stop-color="#0f2e33"/>
<stop offset="1" stop-color="#091e22"/>
</linearGradient>
</defs>
<rect width="1200" height="900" fill="url(#g55)"/>
<circle cx="600" cy="468" r="324" fill="#FAF5F0" opacity="0.05"/><line x1="240" y1="774" x2="960" y2="774" stroke="#FAF5F0" stroke-opacity="0.18" stroke-width="2"/><g transform="translate(600 792) rotate(-124)"><path d="M0 0 C 135 -194, 405 -194, 540 0 C 405 194, 135 194, 0 0 Z" fill="#FAF5F0" opacity="0.28"/></g><g transform="translate(600 792) rotate(-64)"><path d="M0 0 C 140 -201, 418 -201, 558 0 C 418 201, 140 201, 0 0 Z" fill="#FAF5F0" opacity="0.34"/></g><g transform="translate(600 792) rotate(-102)"><path d="M0 0 C 166 -240, 500 -240, 666 0 C 500 240, 166 240, 0 0 Z" fill="#FAF5F0" opacity="0.5"/></g><g transform="translate(600 792) rotate(-82)"><path d="M0 0 C 153 -220, 459 -220, 612 0 C 459 220, 153 220, 0 0 Z" fill="#FAF5F0" opacity="0.42"/></g><path d="M690 342 l 90 -90 l -18 90 Z" fill="#EDBE77" opacity="0.85"/>
<rect x="504" y="874" width="192" height="2" fill="#EDBE77" opacity="0.55"/>
</svg>