<svg xmlns="http://www.w3.org/2000/svg" viewBox="0 0 1200 900" width="1200" height="900">
<defs>
<linearGradient id="g40" x1="0" y1="0" x2="0" y2="1">
<stop offset="0" stop-color="#22443a"/>
<stop offset="1" stop-color="#143129"/>
</linearGradient>
</defs>
<rect width="1200" height="900" fill="url(#g40)"/>
<circle cx="600" cy="468" r="324" fill="#FAF5F0" opacity="0.05"/><circle cx="448" cy="282" r="56" fill="#FAF5F0" opacity="0.09"/><circle cx="631" cy="402" r="30" fill="#FAF5F0" opacity="0.16"/><circle cx="200" cy="440" r="30" fill="#FAF5F0" opacity="0.09"/><circle cx="535" cy="659" r="33" fill="#FAF5F0" opacity="0.12"/><circle cx="710" cy="727" r="53" fill="#FAF5F0" opacity="0.14"/><circle cx="1011" cy="224" r="66" fill="#FAF5F0" opacity="0.13"/><circle cx="293" cy="264" r="41" fill="#FAF5F0" opacity="0.21"/><circle cx="324" cy="523" r="56" fill="#FAF5F0" opacity="0.14"/><circle cx="641" cy="233" r="30" fill="#FAF5F0" opacity="0.11"/><circle cx="756" cy="437" r="41" fill="#FAF5F0" opacity="0.17"/><circle cx="560" cy="365" r="63" fill="#FAF5F0" opacity="0.19"/><circle cx="379" cy="519" r="51" fill="#FAF5F0" opacity="0.22"/><circle cx="798" cy="359" r="71" fill="#FAF5F0" opacity="0.10"/><circle cx="529" cy="620" r="34" fill="#FAF5F0" opacity="0.16"/><circle cx="202" cy="571" r="61" fill="#FAF5F0" opacity="0.17"/><circle cx="924" cy="373" r="58" fill="#FAF5F0" opacity="0.18"/><circle cx="669" cy="453" r="65" fill="#FAF5F0" opacity="0.23"/><circle cx="578" cy="569" r="30" fill="#FAF5F0" opacity="0.19"/><circle cx="727" cy="752" r="64" fill="#FAF5F0" opacity="0.13"/><circle cx="501" cy="571" r="28" fill="#FAF5F0" opacity="0.15"/><circle cx="313" cy="263" r="30" fill="#FAF5F0" opacity="0.20"/><circle cx="280" cy="336" r="45" fill="#FAF5F0" opacity="0.22"/><circle cx="238" cy="449" r="52" fill="#FAF5F0" opacity="0.22"/><circle cx="876" cy="680" r="40" fill="#FAF5F0" opacity="0.15"/><circle cx="478" cy="691" r="70" fill="#FAF5F0" opacity="0.10"/><circle cx="320" cy="327" r="38" fill="#FAF5F0" opacity="0.16"/><circle cx="677" cy="345" r="27" fill="#FAF5F0" opacity="0.15"/><circle cx="487" cy="514" r="70" fill="#FAF5F0" opacity="0.19"/><circle cx="613" cy="543" r="57" fill="#FAF5F0" opacity="0.09"/><circle cx="945" cy="633" r="66" fill="#FAF5F0" opacity="0.21"/><circle cx="507" cy="421" r="32" fill="#FAF5F0" opacity="0.18"/><circle cx="222" cy="236" r="36" fill="#FAF5F0" opacity="0.11"/><circle cx="462" cy="227" r="27" fill="#FAF5F0" opacity="0.10"/><circle cx="256" cy="401" r="28" fill="#FAF5F0" opacity="0.22"/><circle cx="699" cy="281" r="38" fill="#FAF5F0" opacity="0.14"/><circle cx="483" cy="267" r="65" fill="#FAF5F0" opacity="0.24"/><circle cx="571" cy="468" r="31" fill="#FAF5F0" opacity="0.10"/><circle cx="464" cy="346" r="64" fill="#FAF5F0" opacity="0.11"/><circle cx="188" cy="729" r="51" fill="#FAF5F0" opacity="0.10"/><circle cx="637" cy="213" r="51" fill="#FAF5F0" opacity="0.24"/><circle cx="914" cy="586" r="39" fill="#FAF5F0" opacity="0.14"/><circle cx="312" cy="629" r="51" fill="#FAF5F0" opacity="0.20"/><circle cx="453" cy="322" r="64" fill="#FAF5F0" opacity="0.24"/><circle cx="905" cy="648" r="64" fill="#FAF5F0" opacity="0.20"/><circle cx="364" cy="487" r="43" fill="#FAF5F0" opacity="0.08"/><circle cx="192" cy="354" r="39" fill="#FAF5F0" opacity="0.19"/>
<rect x="504" y="874" width="192" height="2" fill="#EDBE77" opacity="0.55"/>
</svg>