<svg xmlns="http://www.w3.org/2000/svg" viewBox="0 0 800 600" width="800" height="600">
<defs>
<linearGradient id="g61" x1="0" y1="0" x2="0" y2="1">
<stop offset="0" stop-color="#0f2e33"/>
<stop offset="1" stop-color="#091e22"/>
</linearGradient>
</defs>
<rect width="800" height="600" fill="url(#g61)"/>
<circle cx="400" cy="312" r="216" fill="#FAF5F0" opacity="0.05"/><rect x="112" y="342" width="80" height="162" fill="#FAF5F0" opacity="0.14"/><rect x="128" y="366" width="11" height="16" fill="#EDBE77" opacity="0.4"/><rect x="152" y="366" width="11" height="16" fill="#EDBE77" opacity="0.4"/><rect x="128" y="407" width="11" height="16" fill="#FAF5F0" opacity="0.4"/><rect x="152" y="407" width="11" height="16" fill="#FAF5F0" opacity="0.4"/><rect x="128" y="447" width="11" height="16" fill="#FAF5F0" opacity="0.4"/><rect x="152" y="447" width="11" height="16" fill="#FAF5F0" opacity="0.4"/><rect x="204" y="298" width="56" height="206" fill="#FAF5F0" opacity="0.18"/><rect x="215" y="329" width="8" height="21" fill="#FAF5F0" opacity="0.4"/><rect x="232" y="329" width="8" height="21" fill="#FAF5F0" opacity="0.4"/><rect x="215" y="380" width="8" height="21" fill="#FAF5F0" opacity="0.4"/><rect x="232" y="380" width="8" height="21" fill="#FAF5F0" opacity="0.4"/><rect x="215" y="432" width="8" height="21" fill="#FAF5F0" opacity="0.4"/><rect x="232" y="432" width="8" height="21" fill="#FAF5F0" opacity="0.4"/><rect x="272" y="257" width="96" height="247" fill="#FAF5F0" opacity="0.22"/><rect x="291" y="294" width="13" height="25" fill="#FAF5F0" opacity="0.4"/><rect x="320" y="294" width="13" height="25" fill="#FAF5F0" opacity="0.4"/><rect x="291" y="356" width="13" height="25" fill="#FAF5F0" opacity="0.4"/><rect x="320" y="356" width="13" height="25" fill="#FAF5F0" opacity="0.4"/><rect x="291" y="418" width="13" height="25" fill="#EDBE77" opacity="0.4"/><rect x="320" y="418" width="13" height="25" fill="#EDBE77" opacity="0.4"/><rect x="380" y="308" width="64" height="196" fill="#FAF5F0" opacity="0.26"/><rect x="393" y="337" width="9" height="20" fill="#FAF5F0" opacity="0.4"/><rect x="412" y="337" width="9" height="20" fill="#FAF5F0" opacity="0.4"/><rect x="393" y="386" width="9" height="20" fill="#EDBE77" opacity="0.4"/><rect x="412" y="386" width="9" height="20" fill="#EDBE77" opacity="0.4"/><rect x="393" y="435" width="9" height="20" fill="#FAF5F0" opacity="0.4"/><rect x="412" y="435" width="9" height="20" fill="#FAF5F0" opacity="0.4"/><rect x="456" y="279" width="88" height="225" fill="#FAF5F0" opacity="0.30"/><rect x="474" y="313" width="12" height="23" fill="#EDBE77" opacity="0.4"/><rect x="500" y="313" width="12" height="23" fill="#EDBE77" opacity="0.4"/><rect x="474" y="369" width="12" height="23" fill="#FAF5F0" opacity="0.4"/><rect x="500" y="369" width="12" height="23" fill="#FAF5F0" opacity="0.4"/><rect x="474" y="425" width="12" height="23" fill="#FAF5F0" opacity="0.4"/><rect x="500" y="425" width="12" height="23" fill="#FAF5F0" opacity="0.4"/><rect x="556" y="328" width="72" height="176" fill="#FAF5F0" opacity="0.34"/><rect x="570" y="354" width="10" height="18" fill="#FAF5F0" opacity="0.4"/><rect x="592" y="354" width="10" height="18" fill="#FAF5F0" opacity="0.4"/><rect x="570" y="398" width="10" height="18" fill="#FAF5F0" opacity="0.4"/><rect x="592" y="398" width="10" height="18" fill="#FAF5F0" opacity="0.4"/><rect x="570" y="442" width="10" height="18" fill="#FAF5F0" opacity="0.4"/><rect x="592" y="442" width="10" height="18" fill="#FAF5F0" opacity="0.4"/><rect x="640" y="332" width="80" height="172" fill="#FAF5F0" opacity="0.38"/><rect x="656" y="358" width="11" height="17" fill="#FAF5F0" opacity="0.4"/><rect x="680" y="358" width="11" height="17" fill="#FAF5F0" opacity="0.4"/><rect x="656" y="401" width="11" height="17" fill="#FAF5F0" opacity="0.4"/><rect x="680" y="401" width="11" height="17" fill="#FAF5F0" opacity="0.4"/><rect x="656" y="444" width="11" height="17" fill="#EDBE77" opacity="0.4"/><rect x="680" y="444" width="11" height="17" fill="#EDBE77" opacity="0.4"/><line x1="80" y1="504" x2="720" y2="504" stroke="#FAF5F0" stroke-opacity="0.25" stroke-width="2"/><g transform="translate(176 504) rotate(-72)"><path d="M0 0 C 41 -50, 124 -50, 166 0 C 124 50, 41 50, 0 0 Z" fill="#FAF5F0" opacity="0.4"/></g><g transform="translate(176 504) rotate(-48)"><path d="M0 0 C 47 -56, 141 -56, 188 0 C 141 56, 47 56, 0 0 Z" fill="#FAF5F0" opacity="0.4"/></g><g transform="translate(176 504) rotate(-24)"><path d="M0 0 C 51 -61, 152 -61, 203 0 C 152 61, 51 61, 0 0 Z" fill="#FAF5F0" opacity="0.4"/></g><g transform="translate(176 504) rotate(0)"><path d="M0 0 C 52 -62, 156 -62, 208 0 C 156 62, 52 62, 0 0 Z" fill="#FAF5F0" opacity="0.4"/></g><g transform="translate(176 504) rotate(24)"><path d="M0 0 C 51 -61, 152 -61, 203 0 C 152 61, 51 61, 0 0 Z" fill="#FAF5F0" opacity="0.4"/></g><g transform="translate(176 504) rotate(48)"><path d="M0 0 C 47 -56, 141 -56, 188 0 C 141 56, 47 56, 0 0 Z" fill="#FAF5F0" opacity="0.4"/></g><g transform="translate(176 504) rotate(72)"><path d="M0 0 C 41 -50, 124 -50, 166 0 C 124 50, 41 50, 0 0 Z" fill="#FAF5F0" opacity="0.4"/></g><path d="M174 504 Q 176 606 180 708" stroke="#FAF5F0" stroke-width="7" fill="none" opacity="0.4"/><rect x="619" y="432" width="11" height="72" fill="#FAF5F0" opacity="0.336"/><circle cx="624" cy="405" r="43" fill="#FAF5F0" opacity="0.42"/>
<rect x="336" y="574" width="128" height="2" fill="#EDBE77" opacity="0.55"/>
</svg>